<svg xmlns="http://www.w3.org/2000/svg" version="1.1" xmlns:xlink="http://www.w3.org/1999/xlink" xmlns:svgjs="http://svgjs.dev/svgjs" width="1500" height="1500" viewBox="0 0 1500 1500"><rect width="1500" height="1500" fill="#ffffff"></rect><g transform="matrix(0.6666666666666666,0,0,0.6666666666666666,249.39393939393938,663.6449108337179)"><svg viewBox="0 0 396 68" data-background-color="#ffffff" preserveAspectRatio="xMidYMid meet" height="257" width="1500" xmlns="http://www.w3.org/2000/svg" xmlns:xlink="http://www.w3.org/1999/xlink"><g id="tight-bounds" transform="matrix(1,0,0,1,0.2400000000000091,0.27322605043104886)"><svg viewBox="0 0 395.52 67.45354789913792" height="67.45354789913792" width="395.52"><g><svg viewBox="0 0 501.9204146909882 85.59949619213627" height="67.45354789913792" width="395.52"><g><rect width="3.9575520227927936" height="79.65508673434901" x="92.08277883889492" y="2.9722047288936295" fill="#000000" opacity="1" stroke-width="0" stroke="transparent" fill-opacity="1" class="rect-yte-0" data-fill-palette-color="primary" rx="1%" id="yte-0" data-palette-color="#111111"></rect></g><g transform="matrix(1,0,0,1,106.40041469098823,3.1703517108198653)"><svg viewBox="0 0 395.52 79.25879277049654" height="79.25879277049654" width="395.52"><g id="textblocktransform"><svg viewBox="0 0 395.52 79.25879277049654" height="79.25879277049654" width="395.52" id="textblock"><g><svg viewBox="0 0 395.52 43.88452798802295" height="43.88452798802295" width="395.52"><g transform="matrix(1,0,0,1,0,0)"><svg width="395.52" viewBox="2.42 -32.03 293.5 32.57" height="43.88452798802295" data-palette-color="#111111"><path d="M27.22-28.98Q27.81-28.98 28.13-28.77 28.44-28.56 28.6-28.03 28.76-27.49 28.76-26.46L28.76-26.46Q28.76-25.44 28.6-24.9 28.44-24.37 28.13-24.17 27.81-23.97 27.22-23.97L27.22-23.97 22.68-23.97 22.68-8.86Q22.68-4.17 20.04-1.82 17.41 0.54 12.3 0.54L12.3 0.54Q6.59 0.54 2.81-3.05L2.81-3.05Q2.42-3.44 2.42-4.27L2.42-4.27 2.42-12.18Q2.42-13.01 3.16-13.37 3.91-13.72 5.64-13.72L5.64-13.72Q6.79-13.72 7.41-13.56 8.03-13.4 8.28-13.09 8.52-12.77 8.52-12.18L8.52-12.18 8.52-5.83Q10.21-5 12.57-5L12.57-5Q14.58-5 15.58-6.07 16.58-7.13 16.58-9.35L16.58-9.35 16.58-23.97 9.11-23.97Q8.52-23.97 8.2-24.17 7.89-24.37 7.73-24.9 7.57-25.44 7.57-26.46L7.57-26.46Q7.57-27.49 7.73-28.03 7.89-28.56 8.2-28.77 8.52-28.98 9.11-28.98L9.11-28.98 27.22-28.98ZM45.94-28.98Q51.05-28.98 53.5-26.89 55.95-24.8 55.95-21.09L55.95-21.09Q55.95-19.09 54.97-17.66 53.98-16.24 52.19-15.38L52.19-15.38Q57.79-13.87 57.79-8.4L57.79-8.4Q57.79-4.27 55.08-2.14 52.37 0 47.31 0L47.31 0 33.23 0Q32.64 0 32.32-0.2 32-0.39 31.85-0.93 31.69-1.46 31.69-2.49L31.69-2.49Q31.69-3.52 31.85-4.05 32-4.59 32.32-4.8 32.64-5 33.23-5L33.23-5 35.84-5 35.84-23.97 33.23-23.97Q32.64-23.97 32.32-24.17 32-24.37 31.85-24.9 31.69-25.44 31.69-26.46L31.69-26.46Q31.69-27.49 31.85-28.03 32-28.56 32.32-28.77 32.64-28.98 33.23-28.98L33.23-28.98 45.94-28.98ZM41.94-23.73L41.94-17.43 45.41-17.43Q47.6-17.43 48.68-18.21 49.75-18.99 49.75-20.61L49.75-20.61Q49.75-22.24 48.72-22.99 47.68-23.73 45.41-23.73L45.41-23.73 41.94-23.73ZM41.94-12.18L41.94-5.25 46.63-5.25Q51.36-5.25 51.36-8.64L51.36-8.64Q51.36-10.45 50.21-11.32 49.05-12.18 46.63-12.18L46.63-12.18 41.94-12.18ZM115.93-28.98Q116.79-28.98 117.16-28.61 117.52-28.25 117.52-27.39L117.52-27.39 117.52-17.09Q117.52-16.28 116.85-15.92 116.18-15.55 114.79-15.55L114.79-15.55Q113.44-15.55 112.92-15.91 112.39-16.26 112.39-17.09L112.39-17.09 112.39-23.73 107.98-23.73 107.98-5 113.25-5Q113.84-5 114.15-4.8 114.47-4.59 114.63-4.05 114.79-3.52 114.79-2.49L114.79-2.49Q114.79-1.46 114.63-0.93 114.47-0.39 114.15-0.2 113.84 0 113.25 0L113.25 0 96.6 0Q96.01 0 95.7-0.2 95.38-0.39 95.22-0.93 95.06-1.46 95.06-2.49L95.06-2.49Q95.06-3.52 95.22-4.05 95.38-4.59 95.7-4.8 96.01-5 96.6-5L96.6-5 101.87-5 101.87-23.73 97.45-23.73 97.45-17.09Q97.45-16.28 96.78-15.92 96.11-15.55 94.72-15.55L94.72-15.55Q93.38-15.55 92.85-15.91 92.33-16.26 92.33-17.09L92.33-17.09 92.33-27.39Q92.33-28.25 92.7-28.61 93.08-28.98 93.91-28.98L93.91-28.98 115.93-28.98ZM142.54-23.1Q144.62-23.1 146.45-21.73L146.45-21.73Q147.52-20.95 147.52-19.68L147.52-19.68Q147.52-18.87 147.08-17.77L147.08-17.77Q146.65-16.67 146.1-16.11 145.55-15.55 144.94-15.55L144.94-15.55Q144.59-15.55 144.2-15.75L144.2-15.75Q142.84-16.5 141.37-16.5L141.37-16.5Q139.49-16.5 137.86-15.31 136.22-14.11 135.23-12.01 134.24-9.91 134.24-7.32L134.24-7.32 134.24-5 141.25-5Q141.84-5 142.15-4.8 142.47-4.59 142.63-4.05 142.79-3.52 142.79-2.49L142.79-2.49Q142.79-1.46 142.63-0.93 142.47-0.39 142.15-0.2 141.84 0 141.25 0L141.25 0 124.55 0Q123.96 0 123.65-0.2 123.33-0.39 123.17-0.93 123.01-1.46 123.01-2.49L123.01-2.49Q123.01-3.52 123.17-4.05 123.33-4.59 123.65-4.8 123.96-5 124.55-5L124.55-5 128.14-5 128.14-17.55 125.28-17.55Q124.7-17.55 124.38-17.75 124.06-17.94 123.9-18.48 123.74-19.02 123.74-20.04L123.74-20.04Q123.74-21.07 123.9-21.61 124.06-22.14 124.38-22.35 124.7-22.56 125.28-22.56L125.28-22.56 131.97-22.56Q132.8-22.56 133.16-22.2 133.51-21.85 133.51-21.02L133.51-21.02 133.51-15.72Q135.34-19.26 137.72-21.18 140.1-23.1 142.54-23.1L142.54-23.1ZM164.61-23.1Q169.98-23.1 172.38-20.78 174.77-18.46 174.77-14.14L174.77-14.14 174.77-7.08Q174.77-6.1 175.18-5.55 175.6-5 176.38-5L176.38-5 177.14-5Q177.72-5 178.04-4.8 178.36-4.59 178.52-4.05 178.67-3.52 178.67-2.49L178.67-2.49Q178.67-1.46 178.52-0.93 178.36-0.39 178.04-0.2 177.72 0 177.14 0L177.14 0 174.4 0Q172.89 0 171.73-0.62 170.57-1.25 169.96-2.59L169.96-2.59Q168.03-1.1 165.88-0.28 163.73 0.54 161.46 0.54L161.46 0.54Q158.7 0.54 156.7-0.4 154.7-1.34 153.64-3.09 152.58-4.83 152.58-7.2L152.58-7.2Q152.58-10.62 154.99-12.5 157.41-14.38 161.76-14.38L161.76-14.38Q165-14.38 168.66-13.65L168.66-13.65 168.66-14.36Q168.66-15.99 167.64-16.77 166.61-17.55 164.03-17.55L164.03-17.55Q162.59-17.55 160.82-17.2 159.05-16.85 157.31-16.26L157.31-16.26Q156.9-16.14 156.6-16.14L156.6-16.14Q155.99-16.14 155.52-16.59 155.04-17.04 154.65-18.12L154.65-18.12Q154.28-19.19 154.28-19.87L154.28-19.87Q154.28-21.12 155.41-21.53L155.41-21.53Q157.58-22.31 160.02-22.71 162.46-23.1 164.61-23.1L164.61-23.1ZM162.37-9.35Q160.66-9.35 159.77-8.74 158.87-8.13 158.87-6.96L158.87-6.96Q158.87-5.81 159.74-5.21 160.61-4.61 162.24-4.61L162.24-4.61Q163.93-4.61 165.58-5.29 167.22-5.96 168.66-7.13L168.66-7.13 168.66-8.69Q165.44-9.35 162.37-9.35L162.37-9.35ZM203.74-32.03Q204.57-32.03 204.93-31.68 205.28-31.32 205.28-30.49L205.28-30.49 205.28-5 207.41-5Q207.99-5 208.31-4.81 208.63-4.61 208.79-4.08 208.94-3.54 208.94-2.51L208.94-2.51Q208.94-1.49 208.79-0.95 208.63-0.42 208.31-0.21 207.99 0 207.41 0L207.41 0 201.69 0Q200.86 0 200.51-0.35 200.16-0.71 200.16-1.54L200.16-1.54 200.16-3.59Q198.89-1.64 196.98-0.55 195.08 0.54 192.76 0.54L192.76 0.54Q189.56 0.54 187.17-1.03 184.78-2.59 183.51-5.27 182.24-7.96 182.24-11.28L182.24-11.28Q182.24-14.6 183.51-17.29 184.78-19.97 187.17-21.53 189.56-23.1 192.76-23.1L192.76-23.1Q194.66-23.1 196.3-22.35 197.93-21.61 199.18-20.21L199.18-20.21 199.18-27.03 195.59-27.03Q195-27.03 194.69-27.22 194.37-27.42 194.21-27.95 194.05-28.49 194.05-29.52L194.05-29.52Q194.05-30.54 194.21-31.08 194.37-31.62 194.69-31.82 195-32.03 195.59-32.03L195.59-32.03 203.74-32.03ZM193.74-17.55Q192.22-17.55 191.1-16.78 189.98-16.02 189.38-14.6 188.78-13.18 188.78-11.28L188.78-11.28Q188.78-9.38 189.38-7.96 189.98-6.54 191.1-5.77 192.22-5 193.74-5L193.74-5Q195.3-5 196.57-5.74 197.84-6.47 198.59-7.9 199.35-9.33 199.35-11.28L199.35-11.28Q199.35-13.23 198.59-14.66 197.84-16.09 196.57-16.82 195.3-17.55 193.74-17.55L193.74-17.55ZM225.18-23.1Q228.89-23.1 231.5-21.5 234.11-19.9 235.44-17.05 236.77-14.21 236.77-10.55L236.77-10.55Q236.77-9.72 236.42-9.38 236.07-9.03 235.24-9.03L235.24-9.03 219.56-9.03Q220.03-7.08 221.55-6.04 223.08-5 225.42-5L225.42-5Q229.21-5 233.63-6.35L233.63-6.35Q233.92-6.45 234.21-6.45L234.21-6.45Q234.75-6.45 235.14-5.96 235.53-5.47 235.85-4.3L235.85-4.3Q236.09-3.39 236.09-2.76L236.09-2.76Q236.09-2.12 235.81-1.77 235.53-1.42 234.89-1.2L234.89-1.2Q232.45-0.39 229.91 0.07 227.38 0.54 224.93 0.54L224.93 0.54Q221.22 0.54 218.54-0.98 215.85-2.49 214.45-5.16 213.04-7.84 213.04-11.28L213.04-11.28Q213.04-14.7 214.51-17.38 215.97-20.07 218.73-21.58 221.49-23.1 225.18-23.1L225.18-23.1ZM225.18-17.55Q220.71-17.55 219.66-13.79L219.66-13.79 230.4-13.79Q229.99-15.58 228.63-16.56 227.28-17.55 225.18-17.55L225.18-17.55ZM262.46-23.1Q264.53-23.1 266.36-21.73L266.36-21.73Q267.44-20.95 267.44-19.68L267.44-19.68Q267.44-18.87 267-17.77L267-17.77Q266.56-16.67 266.01-16.11 265.46-15.55 264.85-15.55L264.85-15.55Q264.51-15.55 264.12-15.75L264.12-15.75Q262.75-16.5 261.28-16.5L261.28-16.5Q259.4-16.5 257.77-15.31 256.13-14.11 255.14-12.01 254.15-9.91 254.15-7.32L254.15-7.32 254.15-5 261.16-5Q261.75-5 262.06-4.8 262.38-4.59 262.54-4.05 262.7-3.52 262.7-2.49L262.7-2.49Q262.7-1.46 262.54-0.93 262.38-0.39 262.06-0.2 261.75 0 261.16 0L261.16 0 244.46 0Q243.88 0 243.56-0.2 243.24-0.39 243.08-0.93 242.92-1.46 242.92-2.49L242.92-2.49Q242.92-3.52 243.08-4.05 243.24-4.59 243.56-4.8 243.88-5 244.46-5L244.46-5 248.05-5 248.05-17.55 245.19-17.55Q244.61-17.55 244.29-17.75 243.97-17.94 243.82-18.48 243.66-19.02 243.66-20.04L243.66-20.04Q243.66-21.07 243.82-21.61 243.97-22.14 244.29-22.35 244.61-22.56 245.19-22.56L245.19-22.56 251.88-22.56Q252.71-22.56 253.07-22.2 253.42-21.85 253.42-21.02L253.42-21.02 253.42-15.72Q255.25-19.26 257.63-21.18 260.01-23.1 262.46-23.1L262.46-23.1ZM291.92-23.1Q293.48-23.1 294.14-22.74 294.8-22.39 294.8-21.56L294.8-21.56 294.8-16.41Q294.8-15.58 294.28-15.22 293.75-14.87 292.56-14.87L292.56-14.87Q291.26-14.87 290.77-15.38L290.77-15.38Q289.33-16.92 287.48-17.57 285.62-18.21 283.18-18.21L283.18-18.21Q281.74-18.21 280.92-17.7 280.1-17.19 280.1-16.33L280.1-16.33Q280.1-15.31 281.91-14.87L281.91-14.87Q282.86-14.62 285.16-14.4L285.16-14.4Q287.43-14.14 288.93-13.87 290.43-13.6 291.77-13.06L291.77-13.06Q293.73-12.26 294.83-10.82 295.92-9.38 295.92-7.01L295.92-7.01Q295.92-4.69 294.79-2.99 293.65-1.29 291.47-0.38 289.28 0.54 286.21 0.54L286.21 0.54Q282.81 0.54 279.91-1.2L279.91-1.2 279.91-1Q279.91-0.17 279.2 0.18 278.49 0.54 276.93 0.54L276.93 0.54Q275.37 0.54 274.71 0.18 274.05-0.17 274.05-1L274.05-1 274.05-6.45Q274.05-7.25 274.62-7.62 275.2-7.98 276.39-7.98L276.39-7.98Q277.88-7.98 278.42-7.3L278.42-7.3Q279.64-5.76 281.54-5.05 283.45-4.35 285.72-4.35L285.72-4.35Q289.63-4.35 289.63-6.37L289.63-6.37Q289.63-6.98 289.08-7.35 288.53-7.71 287.45-7.96L287.45-7.96Q286.84-8.08 284.62-8.4L284.62-8.4Q282.16-8.69 280.39-9.07 278.62-9.45 277.17-10.25L277.17-10.25Q273.81-12.11 273.81-16.11L273.81-16.11Q273.81-18.24 274.95-19.82 276.1-21.41 278.11-22.25 280.13-23.1 282.64-23.1L282.64-23.1Q286.33-23.1 289.19-21.31L289.19-21.31 289.19-21.56Q289.19-22.39 289.78-22.74 290.38-23.1 291.92-23.1L291.92-23.1Z" opacity="1" transform="matrix(1,0,0,1,0,0)" fill="#000000" class="wordmark-text-0" data-fill-palette-color="primary" id="text-0"></path></svg></g></svg></g><g transform="matrix(1,0,0,1,0,54.24461181732346)"><svg viewBox="0 0 395.52 25.014180953173085" height="25.014180953173085" width="395.52"><g transform="matrix(1,0,0,1,0,0)"><svg width="395.52" viewBox="3.49 -35.5 719.56 45.51" height="25.014180953173085" data-palette-color="#111111"><path d="M23.19-18.41L23.19 0 22.19 0 20.36-2.81Q19.21-1.29 17.58-0.4 15.94 0.49 13.94 0.49L13.94 0.49 12.11 0.49Q10.33 0.49 8.75-0.18 7.18-0.85 6.01-2.03 4.83-3.2 4.16-4.76 3.49-6.32 3.49-8.11L3.49-8.11 3.49-26.9Q3.49-28.69 4.16-30.25 4.83-31.81 6.01-32.98 7.18-34.16 8.75-34.83 10.33-35.5 12.11-35.5L12.11-35.5 14.6-35.5Q16.38-35.5 17.94-34.83 19.51-34.16 20.68-32.98 21.85-31.81 22.52-30.25 23.19-28.69 23.19-26.9L23.19-26.9 23.19-25.49 20.04-25 20.04-26.9Q20.04-28.08 19.6-29.09 19.17-30.1 18.41-30.86 17.65-31.62 16.64-32.06 15.63-32.5 14.45-32.5L14.45-32.5 12.26-32.5Q11.08-32.5 10.07-32.06 9.06-31.62 8.29-30.86 7.52-30.1 7.08-29.09 6.64-28.08 6.64-26.9L6.64-26.9 6.64-8.11Q6.64-6.93 7.08-5.92 7.52-4.91 8.29-4.14 9.06-3.37 10.07-2.93 11.08-2.49 12.26-2.49L12.26-2.49 14.45-2.49Q15.63-2.49 16.64-2.93 17.65-3.37 18.41-4.14 19.17-4.91 19.6-5.92 20.04-6.93 20.04-8.11L20.04-8.11 20.04-15.41 14.45-15.41 14.45-18.41 23.19-18.41ZM40.19 0L37.19 0 37.19-35.01 40.19-35.01 40.19 0ZM69.88-6.86L69.88-6.86Q69.88-5.35 69.31-4 68.73-2.66 67.73-1.66 66.73-0.66 65.39-0.09 64.05 0.49 62.53 0.49L62.53 0.49 60.53 0.49Q59.02 0.49 57.67-0.09 56.33-0.66 55.33-1.66 54.33-2.66 53.75-4 53.18-5.35 53.18-6.86L53.18-6.86 53.18-18.14Q53.18-19.65 53.75-21 54.33-22.34 55.33-23.34 56.33-24.34 57.67-24.91 59.02-25.49 60.53-25.49L60.53-25.49 62.53-25.49Q64.05-25.49 65.39-24.91 66.73-24.34 67.73-23.34 68.73-22.34 69.31-21 69.88-19.65 69.88-18.14L69.88-18.14 69.88-6.86ZM66.88-6.69L66.88-18.31Q66.88-19.21 66.54-20.01 66.19-20.8 65.61-21.39 65.02-21.97 64.23-22.31 63.44-22.66 62.53-22.66L62.53-22.66 60.53-22.66Q59.63-22.66 58.83-22.31 58.04-21.97 57.45-21.39 56.87-20.8 56.53-20.01 56.18-19.21 56.18-18.31L56.18-18.31 56.18-6.69Q56.18-5.79 56.53-4.99 56.87-4.2 57.45-3.61 58.04-3.03 58.83-2.69 59.63-2.34 60.53-2.34L60.53-2.34 62.53-2.34Q63.44-2.34 64.23-2.69 65.02-3.03 65.61-3.61 66.19-4.2 66.54-4.99 66.88-5.79 66.88-6.69L66.88-6.69ZM99.06-6.86L99.06-6.86Q99.06-5.35 98.49-4 97.91-2.66 96.91-1.66 95.91-0.66 94.57-0.09 93.22 0.49 91.71 0.49L91.71 0.49 89.71 0.49Q88.19 0.49 86.85-0.09 85.51-0.66 84.51-1.66 83.51-2.66 82.93-4 82.36-5.35 82.36-6.86L82.36-6.86 82.36-35.01 85.36-35.01 85.36-22.9Q86.39-24.12 87.83-24.8 89.27-25.49 90.95-25.49L90.95-25.49 91.71-25.49Q93.22-25.49 94.57-24.91 95.91-24.34 96.91-23.34 97.91-22.34 98.49-21 99.06-19.65 99.06-18.14L99.06-18.14 99.06-6.86ZM96.06-6.69L96.06-18.31Q96.06-19.21 95.71-20.01 95.37-20.8 94.79-21.39 94.2-21.97 93.41-22.31 92.61-22.66 91.71-22.66L91.71-22.66 89.71-22.66Q88.81-22.66 88.01-22.31 87.22-21.97 86.63-21.39 86.05-20.8 85.7-20.01 85.36-19.21 85.36-18.31L85.36-18.31 85.36-6.69Q85.36-5.79 85.7-4.99 86.05-4.2 86.63-3.61 87.22-3.03 88.01-2.69 88.81-2.34 89.71-2.34L89.71-2.34 91.71-2.34Q92.61-2.34 93.41-2.69 94.2-3.03 94.79-3.61 95.37-4.2 95.71-4.99 96.06-5.79 96.06-6.69L96.06-6.69ZM128.24 0L127.24 0 125.58-2.49Q124.55-1.15 123.01-0.33 121.47 0.49 119.64 0.49L119.64 0.49 118.89 0.49Q117.37 0.49 116.03-0.09 114.69-0.66 113.69-1.66 112.69-2.66 112.11-4 111.54-5.35 111.54-6.86L111.54-6.86 111.54-7.1Q111.54-8.62 112.11-9.96 112.69-11.3 113.69-12.3 114.69-13.31 116.03-13.88 117.37-14.45 118.89-14.45L118.89-14.45 125.23-14.45 125.23-18.31Q125.23-19.21 124.89-20.01 124.55-20.8 123.97-21.39 123.38-21.97 122.59-22.31 121.79-22.66 120.89-22.66L120.89-22.66 119.13-22.66Q118.23-22.66 117.43-22.31 116.64-21.97 116.05-21.39 115.47-20.8 115.13-20.01 114.79-19.21 114.79-18.31L114.79-18.31 114.79-17.41 111.78-17.9 111.78-18.14Q111.78-19.65 112.36-21 112.93-22.34 113.93-23.34 114.93-24.34 116.27-24.91 117.62-25.49 119.13-25.49L119.13-25.49 120.89-25.49Q122.4-25.49 123.75-24.91 125.09-24.34 126.09-23.34 127.09-22.34 127.66-21 128.24-19.65 128.24-18.14L128.24-18.14 128.24 0ZM125.23-6.69L125.23-12.11 118.89-12.11Q117.98-12.11 117.19-11.77 116.4-11.43 115.81-10.83 115.22-10.23 114.88-9.44 114.54-8.64 114.54-7.74L114.54-7.74 114.54-6.69Q114.54-5.79 114.88-4.99 115.22-4.2 115.81-3.61 116.4-3.03 117.19-2.69 117.98-2.34 118.89-2.34L118.89-2.34 120.89-2.34Q121.79-2.34 122.59-2.69 123.38-3.03 123.97-3.61 124.55-4.2 124.89-4.99 125.23-5.79 125.23-6.69L125.23-6.69ZM144.72 0L141.72 0 141.72-35.01 144.72-35.01 144.72 0ZM194.02-32.01L185.67-32.01 185.67 0 182.52 0 182.52-32.01 174.17-32.01 174.17-35.01 194.02-35.01 194.02-32.01ZM213.36-22.14L210.36-22.14Q209.45-22.14 208.66-21.8 207.87-21.46 207.28-20.87 206.69-20.29 206.35-19.49 206.01-18.7 206.01-17.8L206.01-17.8 206.01 0 203.01 0 203.01-25 204.01-25 205.64-22.46Q206.67-23.85 208.22-24.67 209.77-25.49 211.6-25.49L211.6-25.49 213.36-25.49 213.36-22.14ZM240.54 0L239.54 0 237.88-2.49Q236.85-1.15 235.31-0.33 233.77 0.49 231.94 0.49L231.94 0.49 231.19 0.49Q229.67 0.49 228.33-0.09 226.99-0.66 225.99-1.66 224.98-2.66 224.41-4 223.84-5.35 223.84-6.86L223.84-6.86 223.84-7.1Q223.84-8.62 224.41-9.96 224.98-11.3 225.99-12.3 226.99-13.31 228.33-13.88 229.67-14.45 231.19-14.45L231.19-14.45 237.53-14.45 237.53-18.31Q237.53-19.21 237.19-20.01 236.85-20.8 236.26-21.39 235.68-21.97 234.88-22.31 234.09-22.66 233.19-22.66L233.19-22.66 231.43-22.66Q230.53-22.66 229.73-22.31 228.94-21.97 228.35-21.39 227.77-20.8 227.43-20.01 227.08-19.21 227.08-18.31L227.08-18.31 227.08-17.41 224.08-17.9 224.08-18.14Q224.08-19.65 224.65-21 225.23-22.34 226.23-23.34 227.23-24.34 228.57-24.91 229.92-25.49 231.43-25.49L231.43-25.49 233.19-25.49Q234.7-25.49 236.04-24.91 237.39-24.34 238.39-23.34 239.39-22.34 239.96-21 240.54-19.65 240.54-18.14L240.54-18.14 240.54 0ZM237.53-6.69L237.53-12.11 231.19-12.11Q230.28-12.11 229.49-11.77 228.7-11.43 228.11-10.83 227.52-10.23 227.18-9.44 226.84-8.64 226.84-7.74L226.84-7.74 226.84-6.69Q226.84-5.79 227.18-4.99 227.52-4.2 228.11-3.61 228.7-3.03 229.49-2.69 230.28-2.34 231.19-2.34L231.19-2.34 233.19-2.34Q234.09-2.34 234.88-2.69 235.68-3.03 236.26-3.61 236.85-4.2 237.19-4.99 237.53-5.79 237.53-6.69L237.53-6.69ZM269.71 0L268.71 0 267.05-2.54Q266.03-1.15 264.49-0.33 262.95 0.49 261.12 0.49L261.12 0.49 260.36 0.49Q258.85 0.49 257.51-0.09 256.17-0.66 255.16-1.66 254.16-2.66 253.59-4 253.02-5.35 253.02-6.86L253.02-6.86 253.02-18.14Q253.02-19.65 253.59-21 254.16-22.34 255.16-23.34 256.17-24.34 257.51-24.91 258.85-25.49 260.36-25.49L260.36-25.49 261.12-25.49Q262.81-25.49 264.25-24.8 265.69-24.12 266.71-22.9L266.71-22.9 266.71-35.01 269.71-35.01 269.71 0ZM266.71-6.69L266.71-18.31Q266.71-19.21 266.37-20.01 266.03-20.8 265.44-21.39 264.86-21.97 264.06-22.31 263.27-22.66 262.37-22.66L262.37-22.66 260.36-22.66Q259.46-22.66 258.67-22.31 257.87-21.97 257.29-21.39 256.7-20.8 256.36-20.01 256.02-19.21 256.02-18.31L256.02-18.31 256.02-6.69Q256.02-5.79 256.36-4.99 256.7-4.2 257.29-3.61 257.87-3.03 258.67-2.69 259.46-2.34 260.36-2.34L260.36-2.34 262.37-2.34Q263.27-2.34 264.06-2.69 264.86-3.03 265.44-3.61 266.03-4.2 266.37-4.99 266.71-5.79 266.71-6.69L266.71-6.69ZM298.89-6.86L298.89-6.86Q298.89-5.35 298.32-4 297.75-2.66 296.74-1.66 295.74-0.66 294.4-0.09 293.06 0.49 291.54 0.49L291.54 0.49 289.54 0.49Q288.03 0.49 286.69-0.09 285.34-0.66 284.34-1.66 283.34-2.66 282.77-4 282.19-5.35 282.19-6.86L282.19-6.86 282.19-18.14Q282.19-19.65 282.77-21 283.34-22.34 284.34-23.34 285.34-24.34 286.69-24.91 288.03-25.49 289.54-25.49L289.54-25.49 291.54-25.49Q293.06-25.49 294.4-24.91 295.74-24.34 296.74-23.34 297.75-22.34 298.32-21 298.89-19.65 298.89-18.14L298.89-18.14 298.89-12.26 285.2-12.26 285.2-6.69Q285.2-5.79 285.54-4.99 285.88-4.2 286.47-3.61 287.05-3.03 287.85-2.69 288.64-2.34 289.54-2.34L289.54-2.34 291.54-2.34Q292.45-2.34 293.24-2.69 294.03-3.03 294.62-3.61 295.21-4.2 295.55-4.99 295.89-5.79 295.89-6.69L295.89-6.69 295.89-8.35 298.89-7.86 298.89-6.86ZM295.89-14.6L295.89-18.31Q295.89-19.21 295.55-20.01 295.21-20.8 294.62-21.39 294.03-21.97 293.24-22.31 292.45-22.66 291.54-22.66L291.54-22.66 289.54-22.66Q288.64-22.66 287.85-22.31 287.05-21.97 286.47-21.39 285.88-20.8 285.54-20.01 285.2-19.21 285.2-18.31L285.2-18.31 285.2-14.6 295.89-14.6ZM315.13-3.76L312.64 7.01 311.37 7.01 311.37-3.76 315.13-3.76ZM363.11 0L346.56 0 346.56-35.01 349.71-35.01 349.71-3 363.11-3 363.11 0ZM390.29-6.86L390.29-6.86Q390.29-5.35 389.72-4 389.14-2.66 388.14-1.66 387.14-0.66 385.8-0.09 384.46 0.49 382.94 0.49L382.94 0.49 380.94 0.49Q379.43 0.49 378.08-0.09 376.74-0.66 375.74-1.66 374.74-2.66 374.16-4 373.59-5.35 373.59-6.86L373.59-6.86 373.59-18.14Q373.59-19.65 374.16-21 374.74-22.34 375.74-23.34 376.74-24.34 378.08-24.91 379.43-25.49 380.94-25.49L380.94-25.49 382.94-25.49Q384.46-25.49 385.8-24.91 387.14-24.34 388.14-23.34 389.14-22.34 389.72-21 390.29-19.65 390.29-18.14L390.29-18.14 390.29-6.86ZM387.29-6.69L387.29-18.31Q387.29-19.21 386.95-20.01 386.6-20.8 386.02-21.39 385.43-21.97 384.64-22.31 383.84-22.66 382.94-22.66L382.94-22.66 380.94-22.66Q380.04-22.66 379.24-22.31 378.45-21.97 377.86-21.39 377.28-20.8 376.94-20.01 376.59-19.21 376.59-18.31L376.59-18.31 376.59-6.69Q376.59-5.79 376.94-4.99 377.28-4.2 377.86-3.61 378.45-3.03 379.24-2.69 380.04-2.34 380.94-2.34L380.94-2.34 382.94-2.34Q383.84-2.34 384.64-2.69 385.43-3.03 386.02-3.61 386.6-4.2 386.95-4.99 387.29-5.79 387.29-6.69L387.29-6.69ZM419.47-6.86L419.47-6.86Q419.47-5.35 418.89-4 418.32-2.66 417.32-1.66 416.32-0.66 414.98-0.09 413.63 0.49 412.12 0.49L412.12 0.49 410.12 0.49Q408.6 0.49 407.26-0.09 405.92-0.66 404.92-1.66 403.92-2.66 403.34-4 402.77-5.35 402.77-6.86L402.77-6.86 402.77-18.14Q402.77-19.65 403.34-21 403.92-22.34 404.92-23.34 405.92-24.34 407.26-24.91 408.6-25.49 410.12-25.49L410.12-25.49 412.12-25.49Q413.63-25.49 414.98-24.91 416.32-24.34 417.32-23.34 418.32-22.34 418.89-21 419.47-19.65 419.47-18.14L419.47-18.14 419.47-17.14 416.47-16.65 416.47-18.31Q416.47-19.21 416.12-20.01 415.78-20.8 415.2-21.39 414.61-21.97 413.82-22.31 413.02-22.66 412.12-22.66L412.12-22.66 410.12-22.66Q409.21-22.66 408.42-22.31 407.63-21.97 407.04-21.39 406.46-20.8 406.11-20.01 405.77-19.21 405.77-18.31L405.77-18.31 405.77-6.69Q405.77-5.79 406.11-4.99 406.46-4.2 407.04-3.61 407.63-3.03 408.42-2.69 409.21-2.34 410.12-2.34L410.12-2.34 412.12-2.34Q413.02-2.34 413.82-2.69 414.61-3.03 415.2-3.61 415.78-4.2 416.12-4.99 416.47-5.79 416.47-6.69L416.47-6.69 416.47-8.35 419.47-7.86 419.47-6.86ZM448.65 0L447.65 0 445.99-2.49Q444.96-1.15 443.42-0.33 441.88 0.49 440.05 0.49L440.05 0.49 439.3 0.49Q437.78 0.49 436.44-0.09 435.1-0.66 434.1-1.66 433.1-2.66 432.52-4 431.95-5.35 431.95-6.86L431.95-6.86 431.95-7.1Q431.95-8.62 432.52-9.96 433.1-11.3 434.1-12.3 435.1-13.31 436.44-13.88 437.78-14.45 439.3-14.45L439.3-14.45 445.64-14.45 445.64-18.31Q445.64-19.21 445.3-20.01 444.96-20.8 444.37-21.39 443.79-21.97 443-22.31 442.2-22.66 441.3-22.66L441.3-22.66 439.54-22.66Q438.64-22.66 437.84-22.31 437.05-21.97 436.46-21.39 435.88-20.8 435.54-20.01 435.19-19.21 435.19-18.31L435.19-18.31 435.19-17.41 432.19-17.9 432.19-18.14Q432.19-19.65 432.77-21 433.34-22.34 434.34-23.34 435.34-24.34 436.68-24.91 438.03-25.49 439.54-25.49L439.54-25.49 441.3-25.49Q442.81-25.49 444.15-24.91 445.5-24.34 446.5-23.34 447.5-22.34 448.07-21 448.65-19.65 448.65-18.14L448.65-18.14 448.65 0ZM445.64-6.69L445.64-12.11 439.3-12.11Q438.39-12.11 437.6-11.77 436.81-11.43 436.22-10.83 435.63-10.23 435.29-9.44 434.95-8.64 434.95-7.74L434.95-7.74 434.95-6.69Q434.95-5.79 435.29-4.99 435.63-4.2 436.22-3.61 436.81-3.03 437.6-2.69 438.39-2.34 439.3-2.34L439.3-2.34 441.3-2.34Q442.2-2.34 443-2.69 443.79-3.03 444.37-3.61 444.96-4.2 445.3-4.99 445.64-5.79 445.64-6.69L445.64-6.69ZM465.13 0L462.13 0 462.13-35.01 465.13-35.01 465.13 0ZM517.29 0L497.58 0 497.58-35.01 517.29-35.01 517.29-32.01 500.73-32.01 500.73-18.99 514.14-18.99 514.14-15.99 500.73-15.99 500.73-3 517.29-3 517.29 0ZM544.95 0L541.7 0 536.36-9.59 531.01 0 527.76 0 534.77-12.5 527.76-25 531.01-25 536.36-15.41 541.7-25 544.95-25 537.97-12.5 544.95 0ZM573.13-6.86L573.13-6.86Q573.13-5.35 572.55-4 571.98-2.66 570.98-1.66 569.98-0.66 568.64-0.09 567.29 0.49 565.78 0.49L565.78 0.49 565.02 0.49Q563.34 0.49 561.9-0.2 560.46-0.88 559.43-2.1L559.43-2.1 559.43 10.01 556.43 10.01 556.43-25 557.43-25 559.07-22.46Q560.09-23.85 561.64-24.67 563.19-25.49 565.02-25.49L565.02-25.49 565.78-25.49Q567.29-25.49 568.64-24.91 569.98-24.34 570.98-23.34 571.98-22.34 572.55-21 573.13-19.65 573.13-18.14L573.13-18.14 573.13-6.86ZM570.13-6.69L570.13-18.31Q570.13-19.21 569.78-20.01 569.44-20.8 568.86-21.39 568.27-21.97 567.48-22.31 566.68-22.66 565.78-22.66L565.78-22.66 563.78-22.66Q562.87-22.66 562.08-22.31 561.29-21.97 560.7-21.39 560.12-20.8 559.77-20.01 559.43-19.21 559.43-18.31L559.43-18.31 559.43-6.69Q559.43-5.79 559.77-4.99 560.12-4.2 560.7-3.61 561.29-3.03 562.08-2.69 562.87-2.34 563.78-2.34L563.78-2.34 565.78-2.34Q566.68-2.34 567.48-2.69 568.27-3.03 568.86-3.61 569.44-4.2 569.78-4.99 570.13-5.79 570.13-6.69L570.13-6.69ZM602.31-6.86L602.31-6.86Q602.31-5.35 601.73-4 601.16-2.66 600.16-1.66 599.16-0.66 597.81-0.09 596.47 0.49 594.96 0.49L594.96 0.49 592.96 0.49Q591.44 0.49 590.1-0.09 588.76-0.66 587.76-1.66 586.76-2.66 586.18-4 585.61-5.35 585.61-6.86L585.61-6.86 585.61-18.14Q585.61-19.65 586.18-21 586.76-22.34 587.76-23.34 588.76-24.34 590.1-24.91 591.44-25.49 592.96-25.49L592.96-25.49 594.96-25.49Q596.47-25.49 597.81-24.91 599.16-24.34 600.16-23.34 601.16-22.34 601.73-21 602.31-19.65 602.31-18.14L602.31-18.14 602.31-12.26 588.61-12.26 588.61-6.69Q588.61-5.79 588.95-4.99 589.29-4.2 589.88-3.61 590.47-3.03 591.26-2.69 592.05-2.34 592.96-2.34L592.96-2.34 594.96-2.34Q595.86-2.34 596.66-2.69 597.45-3.03 598.03-3.61 598.62-4.2 598.96-4.99 599.3-5.79 599.3-6.69L599.3-6.69 599.3-8.35 602.31-7.86 602.31-6.86ZM599.3-14.6L599.3-18.31Q599.3-19.21 598.96-20.01 598.62-20.8 598.03-21.39 597.45-21.97 596.66-22.31 595.86-22.66 594.96-22.66L594.96-22.66 592.96-22.66Q592.05-22.66 591.26-22.31 590.47-21.97 589.88-21.39 589.29-20.8 588.95-20.01 588.61-19.21 588.61-18.31L588.61-18.31 588.61-14.6 599.3-14.6ZM625.14-22.14L622.13-22.14Q621.23-22.14 620.44-21.8 619.64-21.46 619.06-20.87 618.47-20.29 618.13-19.49 617.79-18.7 617.79-17.8L617.79-17.8 617.79 0 614.79 0 614.79-25 615.79-25 617.42-22.46Q618.45-23.85 620-24.67 621.55-25.49 623.38-25.49L623.38-25.49 625.14-25.49 625.14-22.14ZM647.46 0L644.72 0Q643.35 0 642.15-0.51 640.94-1.03 640.05-1.93 639.16-2.83 638.63-4.03 638.11-5.22 638.11-6.59L638.11-6.59 638.11-22.14 633.61-22.14 633.61-25 638.11-25 638.11-31.01 641.11-31.49 641.11-25 647.46-25 647.46-22.14 641.11-22.14 641.11-6.45Q641.11-5.69 641.39-5.04 641.67-4.39 642.16-3.91 642.65-3.42 643.31-3.14 643.96-2.86 644.72-2.86L644.72-2.86 647.46-2.86 647.46 0ZM663.7-31.01L660.2-31.01 660.2-35.01 663.7-35.01 663.7-31.01ZM663.45 0L660.45 0 660.45-25 663.45-25 663.45 0ZM694.12-6.35L694.12-6.35Q694.12-4.83 693.51-3.58 692.9-2.32 691.85-1.42 690.8-0.51 689.42-0.01 688.04 0.49 686.53 0.49L686.53 0.49 684.52 0.49Q683.01 0.49 681.63-0.09 680.25-0.66 679.21-1.66 678.18-2.66 677.55-4 676.93-5.35 676.93-6.86L676.93-6.86 676.93-7.86 679.93-8.35 679.93-6.69Q679.93-5.79 680.31-4.99 680.69-4.2 681.33-3.61 681.96-3.03 682.79-2.69 683.62-2.34 684.52-2.34L684.52-2.34 686.53-2.34Q687.43-2.34 688.26-2.61 689.09-2.88 689.74-3.38 690.38-3.88 690.76-4.59 691.14-5.3 691.14-6.2L691.14-6.2Q691.14-7.54 690.55-8.4 689.97-9.25 689-9.83 688.04-10.4 686.81-10.78 685.57-11.16 684.28-11.54 682.99-11.91 681.75-12.4 680.52-12.89 679.56-13.68 678.59-14.48 678.01-15.67 677.42-16.87 677.42-18.65L677.42-18.65Q677.42-20.17 678.01-21.42 678.59-22.68 679.59-23.58 680.59-24.49 681.92-24.99 683.25-25.49 684.77-25.49L684.77-25.49 686.53-25.49Q688.04-25.49 689.38-24.91 690.73-24.34 691.73-23.34 692.73-22.34 693.3-21 693.87-19.65 693.87-18.14L693.87-18.14 693.87-18.04 690.87-17.55 690.87-18.31Q690.87-19.21 690.53-20.01 690.19-20.8 689.6-21.39 689.02-21.97 688.22-22.31 687.43-22.66 686.53-22.66L686.53-22.66 684.77-22.66Q683.86-22.66 683.07-22.39 682.28-22.12 681.69-21.62 681.11-21.12 680.76-20.41 680.42-19.7 680.42-18.8L680.42-18.8Q680.42-17.5 681.01-16.69 681.59-15.87 682.56-15.31 683.52-14.75 684.76-14.37 685.99-13.99 687.27-13.59 688.55-13.18 689.79-12.67 691.02-12.16 691.98-11.35 692.95-10.55 693.53-9.34 694.12-8.13 694.12-6.35ZM723.05-6.86L723.05-6.86Q723.05-5.35 722.48-4 721.91-2.66 720.9-1.66 719.9-0.66 718.56-0.09 717.22 0.49 715.7 0.49L715.7 0.49 713.7 0.49Q712.19 0.49 710.85-0.09 709.5-0.66 708.5-1.66 707.5-2.66 706.93-4 706.35-5.35 706.35-6.86L706.35-6.86 706.35-18.14Q706.35-19.65 706.93-21 707.5-22.34 708.5-23.34 709.5-24.34 710.85-24.91 712.19-25.49 713.7-25.49L713.7-25.49 715.7-25.49Q717.22-25.49 718.56-24.91 719.9-24.34 720.9-23.34 721.91-22.34 722.48-21 723.05-19.65 723.05-18.14L723.05-18.14 723.05-12.26 709.36-12.26 709.36-6.69Q709.36-5.79 709.7-4.99 710.04-4.2 710.63-3.61 711.21-3.03 712.01-2.69 712.8-2.34 713.7-2.34L713.7-2.34 715.7-2.34Q716.61-2.34 717.4-2.69 718.19-3.03 718.78-3.61 719.37-4.2 719.71-4.99 720.05-5.79 720.05-6.69L720.05-6.69 720.05-8.35 723.05-7.86 723.05-6.86ZM720.05-14.6L720.05-18.31Q720.05-19.21 719.71-20.01 719.37-20.8 718.78-21.39 718.19-21.97 717.4-22.31 716.61-22.66 715.7-22.66L715.7-22.66 713.7-22.66Q712.8-22.66 712.01-22.31 711.21-21.97 710.63-21.39 710.04-20.8 709.7-20.01 709.36-19.21 709.36-18.31L709.36-18.31 709.36-14.6 720.05-14.6Z" opacity="1" transform="matrix(1,0,0,1,0,0)" fill="#000000" class="slogan-text-1" data-fill-palette-color="secondary" id="text-1"></path></svg></g></svg></g></svg></g></svg></g><g><svg viewBox="0 0 81.72269500959442 85.59949619213627" height="85.59949619213627" width="81.72269500959442"><g><svg version="1.0" xmlns="http://www.w3.org/2000/svg" xmlns:xlink="http://www.w3.org/1999/xlink" x="0" y="0" viewBox="0 0 95.471 100" enable-background="new 0 0 95.471 100" xml:space="preserve" id="icon-0" width="81.72269500959442" height="85.59949619213627" class="icon-icon-0" data-fill-palette-color="accent"><path d="M47.735 0C47.652 2.825 45.997 13.412 27.936 30.934 10.554 47.797 2.439 49.824 0 50 2.439 50.178 10.554 52.204 27.936 69.066 45.997 86.589 47.652 97.177 47.735 100 47.818 97.177 49.474 86.589 67.533 69.066 84.917 52.204 93.031 50.178 95.471 50 93.032 49.824 84.917 47.797 67.533 30.934 49.475 13.412 47.819 2.825 47.735 0" fill="#000000" data-fill-palette-color="accent"></path></svg></g></svg></g></svg></g><defs></defs></svg><rect width="395.52" height="67.45354789913792" fill="none" stroke="none" visibility="hidden"></rect></g></svg></g></svg>